<?xml version="1.0" encoding="utf-8"?>
<!-- Generator: Adobe Illustrator 23.0.5, SVG Export Plug-In . SVG Version: 6.00 Build 0)  -->
<svg version="1.1" id="Layer_1" xmlns="http://www.w3.org/2000/svg" xmlns:xlink="http://www.w3.org/1999/xlink" x="0px" y="0px"
	 viewBox="0 0 839.2 761.2" style="enable-background:new 0 0 839.2 761.2;" xml:space="preserve">
<style type="text/css">
	.st0{fill:#3F37C9;}
	.st1{fill:#000100;}
</style>
<g>
	<path class="st0" d="M8.8,488.8l20.5,0c4,0,7.8-1.6,10.6-4.5l19.4-19.8c10.9-2.9,26.5-7.3,43.2-13l-4.3,14.4l22.9,22.9l44,0
		c0-4.1-3.3-7.4-7.4-7.4l-14.5,0L125.7,464l7.3-24.2c16.9-7.3,32.6-15.8,43.2-25.2c15.6-13.8,22.1-35.2,17.4-55.5l-4.6-19.9
		l4.8-10.3c19.6-2.6,50,1.3,50,1.3s-22.8-8.4-44.2-11.3l0-37.1l-2.5,0.9c-5.9,2.2-10.1,7.7-10.8,13.9l-10.1-27.6l-1-2.7l-2,2.1
		c-5.1,5.1-6.5,13.6-3.5,21.7l2.8,7.6L152,273.3l-1.9-2.2l-1.2,2.6c-3.1,6.5-1.5,15,4,21.5l4,4.8l-22.6-9.9l-2.4-1.1l-0.1,2.7
		c-0.3,7,3.7,13.5,10.1,16.3l6.7,2.9l-21.1-0.3l-2.7,0l0.9,2.5c2.4,6.6,8.6,11,15.6,11.1l14.4,0.2l-14.4,32.1l0,0
		c1.9,2.9,3.3,6.2,4.1,9.7c4.2,18-1.7,36.7-15.2,48.7c-14.2,12.6-34.8,22-54.5,29.1l10.8-11c14.8-6.1,29.1-13.6,39.5-22.9
		c11.9-10.6,16.8-27,13.2-42.4c-0.5-2.3-1.4-4.5-2.5-6.5L8.8,488.8z M106.5,463.8l4.6-15.3c4.4-1.6,8.8-3.3,13.1-5l-6.8,22.6
		l15.4,15.4h-8.7L106.5,463.8z"/>
	<g>
		<path class="st0" d="M256.5,489.1V373h27.6v48.4c2.3-4.5,5.7-8.2,10.2-11s9.9-4.2,16.3-4.2c8.1,0,14.5,2.6,19.3,7.7
			c4.8,5.1,7.2,12.7,7.2,22.7v52.4h-27.6v-46.9c0-4.6-0.9-8-2.8-10.2c-1.9-2.2-4.8-3.4-8.8-3.4c-4.2,0-7.6,1.3-10,3.9
			c-2.5,2.6-3.7,6.4-3.7,11.4v45.2H256.5z"/>
		<path class="st0" d="M379.2,491c-8.1,0-14.7-2.5-19.7-7.6c-5-5.1-7.5-12.5-7.5-22.3v-52.6h27.6v48.1c0,4.6,0.9,8,2.7,10.2
			c1.8,2.2,4.7,3.4,8.6,3.4c4.3,0,7.7-1.3,10.1-3.9c2.4-2.6,3.7-6.4,3.7-11.4v-46.4h27.6v80.7h-27.6v-12.5
			C399.9,486.2,391.4,491,379.2,491z"/>
		<path class="st0" d="M478.5,491c-4.8,0-9.2-0.9-13.3-2.6c-4.1-1.7-7.7-4.3-10.8-7.6c-3.1-3.3-5.6-7.6-7.4-13
			c-1.8-5.3-2.7-11.4-2.7-18.2v-1.3c0-13.3,3.2-23.6,9.7-31c6.5-7.4,14.7-11.1,24.6-11.1c11.6,0,19.9,4.5,25,13.6V373h27.6v116.2
			h-27.6V476c-2.2,4.4-5.5,8-9.9,10.8C489.4,489.6,484.3,491,478.5,491z M488.2,469.8c5.1,0,9-1.7,11.8-5.2
			c2.8-3.5,4.2-8.6,4.2-15.4v-1.3c0-6.8-1.4-11.9-4.1-15.5c-2.7-3.5-6.6-5.3-11.7-5.3c-10.6,0-15.9,7-15.9,20.9v1.3
			c0,6.7,1.4,11.8,4.1,15.3C479.5,468.1,483.3,469.8,488.2,469.8z"/>
		<path class="st0" d="M547.6,489.1V373h27.6v48.4c2.3-4.5,5.7-8.2,10.2-11s9.9-4.2,16.3-4.2c8.1,0,14.5,2.6,19.3,7.7
			c4.8,5.1,7.2,12.7,7.2,22.7v52.4h-27.6v-46.9c0-4.6-0.9-8-2.8-10.2c-1.9-2.2-4.8-3.4-8.8-3.4c-4.2,0-7.6,1.3-10,3.9
			c-2.5,2.6-3.7,6.4-3.7,11.4v45.2H547.6z"/>
		<path class="st0" d="M670.3,491c-8.1,0-14.7-2.5-19.7-7.6c-5-5.1-7.5-12.5-7.5-22.3v-52.6h27.6v48.1c0,4.6,0.9,8,2.7,10.2
			c1.8,2.2,4.7,3.4,8.6,3.4c4.3,0,7.7-1.3,10.1-3.9c2.4-2.6,3.7-6.4,3.7-11.4v-46.4h27.6v80.7h-27.6v-12.5
			C691,486.2,682.4,491,670.3,491z"/>
		<path class="st0" d="M769.6,491c-4.8,0-9.2-0.9-13.3-2.6c-4.1-1.7-7.7-4.3-10.8-7.6c-3.1-3.3-5.6-7.6-7.4-13
			c-1.8-5.3-2.7-11.4-2.7-18.2v-1.3c0-13.3,3.2-23.6,9.7-31c6.5-7.4,14.7-11.1,24.6-11.1c11.6,0,19.9,4.5,25,13.6V373h27.6v116.2
			h-27.6V476c-2.2,4.4-5.5,8-9.9,10.8C780.5,489.6,775.4,491,769.6,491z M779.3,469.8c5.1,0,9-1.7,11.8-5.2
			c2.8-3.5,4.2-8.6,4.2-15.4v-1.3c0-6.8-1.4-11.9-4.1-15.5c-2.7-3.5-6.6-5.3-11.7-5.3c-10.6,0-15.9,7-15.9,20.9v1.3
			c0,6.7,1.4,11.8,4.1,15.3C770.5,468.1,774.4,469.8,779.3,469.8z"/>
	</g>
</g>
</svg>
